<svg width="393" height="661" viewBox="0 0 393 661" fill="none" xmlns="http://www.w3.org/2000/svg">
<g filter="url(#filter0_d_157_1223)">
<path d="M64 164.381C64 146.708 78.3269 132.381 96 132.381H297C314.673 132.381 329 146.708 329 164.381V496.619C329 514.292 314.673 528.619 297 528.619H96C78.3269 528.619 64 514.292 64 496.619V164.381Z" fill="url(#paint0_linear_157_1223)" shape-rendering="crispEdges"/>
<path d="M96 132.881H297C314.397 132.881 328.5 146.984 328.5 164.381V496.619C328.5 514.016 314.397 528.119 297 528.119H96C78.6031 528.119 64.5001 514.016 64.5 496.619V164.381L64.5107 163.567C64.9422 146.546 78.875 132.881 96 132.881Z" stroke="url(#paint1_linear_157_1223)" stroke-opacity="0.25" shape-rendering="crispEdges"/>
<path d="M181.7 318.026C181.882 318.026 182.066 317.996 182.236 317.957L188.376 338.821H188.382C189.064 341.148 192.454 342.917 196.534 342.917C200.618 342.917 204.001 341.15 204.69 338.821H204.693L210.828 317.971C210.971 318 211.131 318.027 211.296 318.027C212.49 318.027 213.454 317.063 213.454 315.864C213.454 314.679 212.492 313.709 211.296 313.709C210.108 313.709 209.138 314.676 209.138 315.864C209.138 316.73 209.639 317.465 210.37 317.811L203.257 333.054L204.397 312.515H204.446C205.634 312.515 206.606 311.551 206.606 310.36C206.606 309.17 205.637 308.197 204.446 308.197C203.26 308.197 202.284 309.169 202.284 310.36C202.284 311.343 202.947 312.166 203.843 312.429L199.116 332.503L196.833 310.379C197.883 310.225 198.682 309.327 198.682 308.24C198.682 307.052 197.72 306.083 196.527 306.083C195.331 306.083 194.367 307.05 194.367 308.24C194.367 309.327 195.176 310.233 196.223 310.379L193.948 332.46L189.226 312.427C190.134 312.172 190.806 311.345 190.806 310.358C190.806 309.167 189.836 308.195 188.648 308.195C187.452 308.195 186.485 309.167 186.485 310.358C186.485 311.546 187.452 312.513 188.648 312.513H188.678L189.82 333.04L182.693 317.781C183.391 317.422 183.862 316.699 183.862 315.858C183.862 314.673 182.9 313.703 181.701 313.703C180.511 313.703 179.546 314.67 179.546 315.858C179.546 317.061 180.508 318.026 181.7 318.026ZM196.494 337.062C200.228 337.062 203.251 338.019 203.251 339.191C203.251 340.368 200.228 341.316 196.494 341.316C192.76 341.316 189.733 340.371 189.733 339.191C189.735 338.019 192.76 337.062 196.494 337.062Z" fill="#BC9A74" fill-opacity="0.5"/>
</g>
<path d="M112.257 599.342H109.506V604H106.816V591.045H112.459C113.76 591.045 114.797 591.379 115.57 592.047C116.344 592.715 116.73 593.749 116.73 595.149C116.73 596.679 116.344 597.76 115.57 598.393C114.797 599.025 113.692 599.342 112.257 599.342ZM113.522 596.644C113.874 596.333 114.05 595.841 114.05 595.167C114.05 594.493 113.871 594.013 113.514 593.726C113.162 593.438 112.667 593.295 112.028 593.295H109.506V597.109H112.028C112.667 597.109 113.165 596.954 113.522 596.644ZM123.375 596.731C122.367 596.731 121.69 597.06 121.345 597.716C121.151 598.085 121.055 598.653 121.055 599.421V604H118.532V594.42H120.923V596.09C121.31 595.451 121.646 595.015 121.934 594.78C122.402 594.388 123.012 594.191 123.762 594.191C123.809 594.191 123.847 594.194 123.876 594.2C123.911 594.2 123.984 594.203 124.096 594.209V596.775C123.938 596.758 123.797 596.746 123.674 596.74C123.551 596.734 123.451 596.731 123.375 596.731ZM133.772 601.188C133.708 601.756 133.412 602.333 132.885 602.919C132.064 603.851 130.916 604.316 129.439 604.316C128.221 604.316 127.146 603.924 126.214 603.139C125.282 602.354 124.816 601.076 124.816 599.307C124.816 597.648 125.235 596.377 126.073 595.492C126.917 594.607 128.01 594.165 129.352 594.165C130.148 594.165 130.866 594.314 131.505 594.613C132.144 594.912 132.671 595.384 133.087 596.028C133.462 596.597 133.705 597.256 133.816 598.006C133.881 598.445 133.907 599.078 133.896 599.904H127.339C127.374 600.865 127.676 601.539 128.244 601.926C128.59 602.166 129.006 602.286 129.492 602.286C130.008 602.286 130.427 602.14 130.749 601.847C130.925 601.688 131.08 601.469 131.215 601.188H133.772ZM131.294 598.252C131.253 597.59 131.051 597.089 130.688 596.749C130.33 596.403 129.885 596.23 129.352 596.23C128.771 596.23 128.32 596.412 127.998 596.775C127.682 597.139 127.482 597.631 127.4 598.252H131.294ZM128.042 593.128L129.729 590.5H132.524L129.853 593.128H128.042ZM142.192 594.859C142.942 595.34 143.373 596.166 143.484 597.338H140.979C140.944 597.016 140.854 596.761 140.707 596.573C140.432 596.233 139.963 596.063 139.301 596.063C138.756 596.063 138.366 596.148 138.132 596.318C137.903 596.488 137.789 596.688 137.789 596.916C137.789 597.203 137.912 597.411 138.158 597.54C138.404 597.675 139.274 597.906 140.769 598.234C141.765 598.469 142.512 598.823 143.01 599.298C143.502 599.778 143.748 600.379 143.748 601.1C143.748 602.049 143.394 602.825 142.685 603.429C141.981 604.026 140.892 604.325 139.415 604.325C137.909 604.325 136.796 604.009 136.075 603.376C135.36 602.737 135.003 601.926 135.003 600.941H137.543C137.596 601.387 137.71 601.703 137.886 601.891C138.196 602.225 138.771 602.392 139.608 602.392C140.101 602.392 140.49 602.318 140.777 602.172C141.07 602.025 141.217 601.806 141.217 601.513C141.217 601.231 141.1 601.018 140.865 600.871C140.631 600.725 139.761 600.473 138.255 600.115C137.171 599.846 136.406 599.509 135.961 599.104C135.516 598.706 135.293 598.132 135.293 597.382C135.293 596.497 135.639 595.738 136.33 595.105C137.027 594.467 138.006 594.147 139.266 594.147C140.461 594.147 141.437 594.385 142.192 594.859ZM153.812 601.188C153.747 601.756 153.451 602.333 152.924 602.919C152.104 603.851 150.955 604.316 149.479 604.316C148.26 604.316 147.185 603.924 146.253 603.139C145.321 602.354 144.855 601.076 144.855 599.307C144.855 597.648 145.274 596.377 146.112 595.492C146.956 594.607 148.049 594.165 149.391 594.165C150.188 594.165 150.905 594.314 151.544 594.613C152.183 594.912 152.71 595.384 153.126 596.028C153.501 596.597 153.744 597.256 153.855 598.006C153.92 598.445 153.946 599.078 153.935 599.904H147.378C147.413 600.865 147.715 601.539 148.283 601.926C148.629 602.166 149.045 602.286 149.531 602.286C150.047 602.286 150.466 602.14 150.788 601.847C150.964 601.688 151.119 601.469 151.254 601.188H153.812ZM151.333 598.252C151.292 597.59 151.09 597.089 150.727 596.749C150.369 596.403 149.924 596.23 149.391 596.23C148.811 596.23 148.359 596.412 148.037 596.775C147.721 597.139 147.521 597.631 147.439 598.252H151.333ZM160.14 596.274C159.29 596.274 158.707 596.635 158.391 597.355C158.227 597.736 158.145 598.223 158.145 598.814V604H155.648V594.438H158.065V595.835C158.388 595.343 158.692 594.988 158.979 594.771C159.495 594.385 160.148 594.191 160.939 594.191C161.93 594.191 162.738 594.452 163.365 594.974C163.998 595.489 164.314 596.348 164.314 597.549V604H161.748V598.173C161.748 597.669 161.681 597.282 161.546 597.013C161.3 596.521 160.831 596.274 160.14 596.274ZM171.021 602.216V604.088L169.834 604.132C168.65 604.173 167.842 603.968 167.408 603.517C167.127 603.229 166.986 602.787 166.986 602.189V596.292H165.65V594.508H166.986V591.836H169.465V594.508H171.021V596.292H169.465V601.354C169.465 601.747 169.515 601.993 169.614 602.093C169.714 602.187 170.019 602.233 170.528 602.233C170.604 602.233 170.684 602.233 170.766 602.233C170.854 602.228 170.938 602.222 171.021 602.216ZM180.829 601.188C180.765 601.756 180.469 602.333 179.941 602.919C179.121 603.851 177.973 604.316 176.496 604.316C175.277 604.316 174.202 603.924 173.271 603.139C172.339 602.354 171.873 601.076 171.873 599.307C171.873 597.648 172.292 596.377 173.13 595.492C173.974 594.607 175.066 594.165 176.408 594.165C177.205 594.165 177.923 594.314 178.562 594.613C179.2 594.912 179.728 595.384 180.144 596.028C180.519 596.597 180.762 597.256 180.873 598.006C180.938 598.445 180.964 599.078 180.952 599.904H174.396C174.431 600.865 174.732 601.539 175.301 601.926C175.646 602.166 176.062 602.286 176.549 602.286C177.064 602.286 177.483 602.14 177.806 601.847C177.981 601.688 178.137 601.469 178.271 601.188H180.829ZM178.351 598.252C178.31 597.59 178.107 597.089 177.744 596.749C177.387 596.403 176.941 596.23 176.408 596.23C175.828 596.23 175.377 596.412 175.055 596.775C174.738 597.139 174.539 597.631 174.457 598.252H178.351ZM190.04 604H181.77V602.049L186.683 596.459H182.104V594.42H189.873V596.503L185.013 601.943H190.04V604ZM195.718 594.42H198.53L200.525 601.486L202.564 594.42H205.254L201.8 604H199.154L195.718 594.42ZM214.667 595.633C215.476 596.646 215.88 597.845 215.88 599.228C215.88 600.634 215.476 601.838 214.667 602.84C213.858 603.836 212.631 604.334 210.984 604.334C209.338 604.334 208.11 603.836 207.302 602.84C206.493 601.838 206.089 600.634 206.089 599.228C206.089 597.845 206.493 596.646 207.302 595.633C208.11 594.619 209.338 594.112 210.984 594.112C212.631 594.112 213.858 594.619 214.667 595.633ZM210.976 596.23C210.243 596.23 209.678 596.491 209.279 597.013C208.887 597.528 208.69 598.267 208.69 599.228C208.69 600.188 208.887 600.93 209.279 601.451C209.678 601.973 210.243 602.233 210.976 602.233C211.708 602.233 212.271 601.973 212.663 601.451C213.056 600.93 213.252 600.188 213.252 599.228C213.252 598.267 213.056 597.528 212.663 597.013C212.271 596.491 211.708 596.23 210.976 596.23ZM222.067 602.216V604.088L220.881 604.132C219.697 604.173 218.889 603.968 218.455 603.517C218.174 603.229 218.033 602.787 218.033 602.189V596.292H216.697V594.508H218.033V591.836H220.512V594.508H222.067V596.292H220.512V601.354C220.512 601.747 220.562 601.993 220.661 602.093C220.761 602.187 221.065 602.233 221.575 602.233C221.651 602.233 221.73 602.233 221.812 602.233C221.9 602.228 221.985 602.222 222.067 602.216ZM228.492 596.731C227.484 596.731 226.808 597.06 226.462 597.716C226.269 598.085 226.172 598.653 226.172 599.421V604H223.649V594.42H226.04V596.09C226.427 595.451 226.764 595.015 227.051 594.78C227.52 594.388 228.129 594.191 228.879 594.191C228.926 594.191 228.964 594.194 228.993 594.2C229.028 594.2 229.102 594.203 229.213 594.209V596.775C229.055 596.758 228.914 596.746 228.791 596.74C228.668 596.734 228.568 596.731 228.492 596.731ZM238.89 601.188C238.825 601.756 238.529 602.333 238.002 602.919C237.182 603.851 236.033 604.316 234.557 604.316C233.338 604.316 232.263 603.924 231.331 603.139C230.399 602.354 229.934 601.076 229.934 599.307C229.934 597.648 230.353 596.377 231.19 595.492C232.034 594.607 233.127 594.165 234.469 594.165C235.266 594.165 235.983 594.314 236.622 594.613C237.261 594.912 237.788 595.384 238.204 596.028C238.579 596.597 238.822 597.256 238.934 598.006C238.998 598.445 239.024 599.078 239.013 599.904H232.456C232.491 600.865 232.793 601.539 233.361 601.926C233.707 602.166 234.123 602.286 234.609 602.286C235.125 602.286 235.544 602.14 235.866 601.847C236.042 601.688 236.197 601.469 236.332 601.188H238.89ZM236.411 598.252C236.37 597.59 236.168 597.089 235.805 596.749C235.447 596.403 235.002 596.23 234.469 596.23C233.889 596.23 233.438 596.412 233.115 596.775C232.799 597.139 232.6 597.631 232.518 598.252H236.411ZM254.007 597.856H251.44C251.394 597.499 251.273 597.177 251.08 596.89C250.799 596.503 250.362 596.31 249.771 596.31C248.927 596.31 248.35 596.729 248.039 597.566C247.875 598.012 247.793 598.604 247.793 599.342C247.793 600.045 247.875 600.61 248.039 601.038C248.338 601.835 248.9 602.233 249.727 602.233C250.312 602.233 250.729 602.075 250.975 601.759C251.221 601.442 251.37 601.032 251.423 600.528H253.98C253.922 601.29 253.646 602.011 253.154 602.69C252.369 603.786 251.206 604.334 249.665 604.334C248.124 604.334 246.99 603.877 246.264 602.963C245.537 602.049 245.174 600.862 245.174 599.403C245.174 597.757 245.575 596.477 246.378 595.562C247.181 594.648 248.288 594.191 249.7 594.191C250.901 594.191 251.883 594.461 252.645 595C253.412 595.539 253.866 596.491 254.007 597.856ZM256.099 595.457C256.761 594.613 257.897 594.191 259.509 594.191C260.558 594.191 261.489 594.399 262.304 594.815C263.118 595.231 263.525 596.017 263.525 597.171V601.565C263.525 601.87 263.531 602.239 263.543 602.673C263.561 603.001 263.61 603.224 263.692 603.341C263.774 603.458 263.897 603.555 264.062 603.631V604H261.337C261.261 603.807 261.208 603.625 261.179 603.455C261.149 603.285 261.126 603.092 261.108 602.875C260.763 603.25 260.364 603.569 259.913 603.833C259.374 604.144 258.765 604.299 258.085 604.299C257.218 604.299 256.5 604.053 255.932 603.561C255.369 603.062 255.088 602.359 255.088 601.451C255.088 600.273 255.542 599.421 256.45 598.894C256.948 598.606 257.681 598.401 258.647 598.278L259.5 598.173C259.963 598.114 260.294 598.041 260.493 597.953C260.851 597.801 261.029 597.563 261.029 597.241C261.029 596.849 260.892 596.579 260.616 596.433C260.347 596.28 259.948 596.204 259.421 596.204C258.829 596.204 258.41 596.351 258.164 596.644C257.988 596.86 257.871 597.153 257.812 597.522H255.396C255.448 596.685 255.683 595.996 256.099 595.457ZM257.962 602.189C258.196 602.383 258.483 602.479 258.823 602.479C259.362 602.479 259.857 602.321 260.309 602.005C260.766 601.688 261.003 601.111 261.021 600.273V599.342C260.862 599.441 260.701 599.523 260.537 599.588C260.379 599.646 260.159 599.702 259.878 599.755L259.315 599.86C258.788 599.954 258.41 600.068 258.182 600.203C257.795 600.432 257.602 600.786 257.602 601.267C257.602 601.694 257.722 602.002 257.962 602.189ZM270.574 596.731C269.566 596.731 268.89 597.06 268.544 597.716C268.351 598.085 268.254 598.653 268.254 599.421V604H265.731V594.42H268.122V596.09C268.509 595.451 268.846 595.015 269.133 594.78C269.602 594.388 270.211 594.191 270.961 594.191C271.008 594.191 271.046 594.194 271.075 594.2C271.11 594.2 271.184 594.203 271.295 594.209V596.775C271.137 596.758 270.996 596.746 270.873 596.74C270.75 596.734 270.65 596.731 270.574 596.731ZM277.157 602.216V604.088L275.971 604.132C274.787 604.173 273.979 603.968 273.545 603.517C273.264 603.229 273.123 602.787 273.123 602.189V596.292H271.787V594.508H273.123V591.836H275.602V594.508H277.157V596.292H275.602V601.354C275.602 601.747 275.651 601.993 275.751 602.093C275.851 602.187 276.155 602.233 276.665 602.233C276.741 602.233 276.82 602.233 276.902 602.233C276.99 602.228 277.075 602.222 277.157 602.216ZM286.966 601.188C286.901 601.756 286.605 602.333 286.078 602.919C285.258 603.851 284.109 604.316 282.633 604.316C281.414 604.316 280.339 603.924 279.407 603.139C278.476 602.354 278.01 601.076 278.01 599.307C278.01 597.648 278.429 596.377 279.267 595.492C280.11 594.607 281.203 594.165 282.545 594.165C283.342 594.165 284.06 594.314 284.698 594.613C285.337 594.912 285.864 595.384 286.28 596.028C286.655 596.597 286.898 597.256 287.01 598.006C287.074 598.445 287.101 599.078 287.089 599.904H280.532C280.567 600.865 280.869 601.539 281.438 601.926C281.783 602.166 282.199 602.286 282.686 602.286C283.201 602.286 283.62 602.14 283.942 601.847C284.118 601.688 284.273 601.469 284.408 601.188H286.966ZM284.487 598.252C284.446 597.59 284.244 597.089 283.881 596.749C283.523 596.403 283.078 596.23 282.545 596.23C281.965 596.23 281.514 596.412 281.191 596.775C280.875 597.139 280.676 597.631 280.594 598.252H284.487Z" fill="#111111" fill-opacity="0.7"/>
<defs>
<filter id="filter0_d_157_1223" x="16" y="96.381" width="361" height="492.238" filterUnits="userSpaceOnUse" color-interpolation-filters="sRGB">
<feFlood flood-opacity="0" result="BackgroundImageFix"/>
<feColorMatrix in="SourceAlpha" type="matrix" values="0 0 0 0 0 0 0 0 0 0 0 0 0 0 0 0 0 0 127 0" result="hardAlpha"/>
<feOffset dy="12"/>
<feGaussianBlur stdDeviation="24"/>
<feComposite in2="hardAlpha" operator="out"/>
<feColorMatrix type="matrix" values="0 0 0 0 0 0 0 0 0 0 0 0 0 0 0 0 0 0 0.12 0"/>
<feBlend mode="normal" in2="BackgroundImageFix" result="effect1_dropShadow_157_1223"/>
<feBlend mode="normal" in="SourceGraphic" in2="effect1_dropShadow_157_1223" result="shape"/>
</filter>
<linearGradient id="paint0_linear_157_1223" x1="329" y1="132.619" x2="64" y2="528.619" gradientUnits="userSpaceOnUse">
<stop stop-color="#FCF6E9"/>
<stop offset="1" stop-color="#B9966F"/>
</linearGradient>
<linearGradient id="paint1_linear_157_1223" x1="322.5" y1="140.5" x2="69.5" y2="522" gradientUnits="userSpaceOnUse">
<stop stop-color="white"/>
<stop offset="1" stop-color="#F1E6D5"/>
</linearGradient>
</defs>
</svg>
